<svg width="130" height="130" viewBox="0 0 130 130" fill="none" xmlns="http://www.w3.org/2000/svg">
<path d="M88.2369 106.977C97.4113 101.707 104.476 91.4792 108.414 81.6944C112.351 71.9096 112.87 61.092 109.886 50.9788C106.902 40.8655 100.589 32.0431 91.9608 25.9283C83.3322 19.8134 72.8885 16.7608 62.3067 17.2606C51.7249 17.7604 41.6188 21.7836 33.6112 28.6842C25.6036 35.5848 20.1589 44.9625 18.1515 55.3115C16.1441 65.6606 17.6903 76.3806 22.542 85.7503C27.3936 95.12 35.2692 102.596 44.9042 106.977" stroke="#928F8F" stroke-width="10" stroke-linecap="round"/>
<path d="M109.941 51.2054C106.958 41.0921 101.003 32.0431 92.3748 25.9283C83.7461 19.8134 73.3024 16.7608 62.7206 17.2606C52.1388 17.7604 42.0328 21.7836 34.0251 28.6842C26.0175 35.5848 20.5729 44.9625 18.5655 55.3115C16.558 65.6606 18.1043 76.3806 22.9559 85.7503C27.8076 95.12 35.6832 102.596 45.3181 106.977" stroke="white" stroke-width="10" stroke-linecap="round"/>
<g filter="url(#filter0_d_1_7)">
<ellipse cx="109.798" cy="51.2054" rx="1.00352" ry="0.998434" fill="white"/>
</g>
<defs>
<filter id="filter0_d_1_7" x="107.794" y="49.2069" width="4.00705" height="3.99687" filterUnits="userSpaceOnUse" color-interpolation-filters="sRGB">
<feFlood flood-opacity="0" result="BackgroundImageFix"/>
<feColorMatrix in="SourceAlpha" type="matrix" values="0 0 0 0 0 0 0 0 0 0 0 0 0 0 0 0 0 0 127 0" result="hardAlpha"/>
<feOffset/>
<feGaussianBlur stdDeviation="0.5"/>
<feColorMatrix type="matrix" values="0 0 0 0 0 0 0 0 0 0 0 0 0 0 0 0 0 0 0.15 0"/>
<feBlend mode="normal" in2="BackgroundImageFix" result="effect1_dropShadow_1_7"/>
<feBlend mode="normal" in="SourceGraphic" in2="effect1_dropShadow_1_7" result="shape"/>
</filter>
</defs>
</svg>
